<?xml version="1.0" standalone="no"?>
<!DOCTYPE svg PUBLIC "-//W3C//DTD SVG 20010904//EN"
 "http://www.w3.org/TR/2001/REC-SVG-20010904/DTD/svg10.dtd">
<svg version="1.0" xmlns="http://www.w3.org/2000/svg"
 width="512.000000pt" height="512.000000pt" viewBox="0 0 512.000000 512.000000"
 preserveAspectRatio="xMidYMid meet">
<g transform="translate(0.000000,512.000000) scale(0.050000,-0.050000)"
fill="#000000" stroke="none">
<path d="M1672 9800 c-401 -108 -735 -383 -911 -750 -146 -304 -141 -223 -141
-2148 l0 -1725 -97 -114 c-272 -318 -443 -704 -503 -1133 -15 -108 -20 -605
-16 -1541 l6 -1381 75 -152 c302 -611 1155 -610 1456 0 62 124 67 152 75 369
l9 235 3495 0 3495 0 9 -235 c8 -217 13 -245 75 -369 301 -610 1154 -611 1456
0 l75 152 6 1371 c4 908 -1 1428 -16 1541 -57 444 -250 869 -539 1185 l-101
111 0 1699 c0 1634 -2 1705 -40 1857 -130 513 -527 908 -1041 1035 -216 54
-6627 47 -6827 -7z m6769 -392 c343 -102 621 -384 708 -719 27 -103 52 -3149
26 -3149 -3 0 -77 36 -165 80 -88 44 -171 80 -185 80 -19 0 -25 86 -25 376 0
594 -61 791 -325 1051 -313 310 -329 313 -1615 313 -1269 0 -1323 -10 -1620
-304 l-120 -119 -117 117 c-295 295 -355 306 -1623 306 -1286 0 -1302 -3
-1615 -313 -263 -259 -325 -458 -325 -1042 l0 -367 -127 -57 c-70 -31 -164
-80 -210 -109 l-83 -53 0 1547 c0 1364 4 1560 32 1655 98 330 341 582 668 693
l130 45 3241 0 c2924 1 3252 -2 3350 -31z m-3890 -2431 c275 -146 355 -314
365 -771 l8 -343 -1497 -8 c-823 -5 -1518 -16 -1544 -24 l-46 -17 6 358 c9
462 75 624 315 773 152 94 151 94 1252 89 l1040 -4 101 -53z m3466 7 c292
-156 371 -325 380 -812 l6 -358 -46 17 c-26 9 -720 19 -1544 24 l-1496 8 6
343 c9 446 93 629 346 759 140 71 159 72 1221 69 l1040 -4 87 -46z m184 -1545
c642 -66 1175 -436 1452 -1009 146 -303 172 -434 182 -934 l9 -435 -1044 -5
-1043 -6 -59 -65 c-79 -90 -79 -187 0 -267 l59 -58 1041 0 1042 0 0 -400 0
-400 -4720 0 -4720 0 0 400 0 400 2756 0 c3049 0 2818 -10 2864 130 33 99 -22
210 -120 244 -53 18 -737 24 -2787 25 l-2717 1 9 435 c7 365 16 461 52 595
199 735 817 1271 1553 1348 244 25 5944 26 6191 1z m-6981 -4150 c0 -334 -151
-503 -433 -485 -253 16 -372 162 -384 471 l-7 185 412 0 412 0 0 -171z m8617
-14 c-12 -309 -131 -455 -384 -471 -282 -18 -433 151 -433 485 l0 171 412 0
412 0 -7 -185z"/>
<path d="M6786 3044 c-214 -34 -170 -384 48 -384 233 0 276 318 50 377 -30 8
-74 11 -98 7z"/>
</g>
</svg>
